<svg width="22" height="29" viewBox="0 0 22 29" fill="none" xmlns="http://www.w3.org/2000/svg">
<path fill-rule="evenodd" clip-rule="evenodd" d="M3.59389 0H13.1051C13.5817 0.000101531 14.0386 0.189036 14.3756 0.525247L21.0368 7.17061C21.3739 7.50672 21.5632 7.96262 21.5633 8.43802V25.0971C21.5633 26.048 21.1847 26.96 20.5107 27.6323C19.8367 28.3047 18.9226 28.6825 17.9695 28.6825H3.59389C2.64073 28.6825 1.72661 28.3047 1.05263 27.6323C0.378641 26.96 0 26.048 0 25.0971V3.58531C0 2.63442 0.378641 1.72249 1.05263 1.05011C1.72661 0.377737 2.64073 0 3.59389 0ZM13.4771 2.68898V6.27429C13.4771 6.74973 13.6664 7.2057 14.0034 7.54188C14.3404 7.87807 14.7975 8.06694 15.274 8.06694H18.8679L13.4771 2.68898ZM3.89039 24.502C4.05211 24.8247 4.30368 25.1169 4.67745 25.2531C5.04942 25.3876 5.41779 25.3248 5.71968 25.1993C6.29111 24.9663 6.86074 24.4177 7.38365 23.7903C7.98203 23.0714 8.61096 22.1285 9.21833 21.0834C10.391 20.7371 11.5917 20.4936 12.8068 20.3556C13.3459 21.0422 13.903 21.6337 14.442 22.0586C14.9452 22.453 15.5256 22.781 16.1204 22.8061C16.4443 22.8216 16.7649 22.7351 17.0368 22.5587C17.3154 22.3777 17.522 22.116 17.673 21.813C17.8347 21.4885 17.9335 21.1497 17.9209 20.8037C17.9101 20.4625 17.7834 20.1351 17.5615 19.8751C17.1554 19.3911 16.4906 19.1581 15.8365 19.0416C15.043 18.9196 14.238 18.8895 13.4376 18.9519C12.762 17.9985 12.1727 16.987 11.6766 15.9295C12.1258 14.7464 12.4618 13.6277 12.611 12.7135C12.6757 12.3227 12.7098 11.9498 12.6972 11.6128C12.6949 11.2783 12.6169 10.9486 12.469 10.6484C12.3838 10.4827 12.2626 10.338 12.1144 10.2248C11.9661 10.1117 11.7944 10.0328 11.6119 9.99404C11.2489 9.91696 10.8751 9.99404 10.5319 10.1321C9.85445 10.401 9.49686 10.9746 9.36209 11.6074C9.23091 12.2169 9.29021 12.9268 9.44475 13.6439C9.60288 14.3717 9.87242 15.1641 10.2174 15.9654C9.66428 17.334 9.02695 18.6673 8.30908 19.9576C7.38318 20.2488 6.49058 20.6363 5.646 21.1139C4.98113 21.5083 4.38994 21.9743 4.03414 22.5247C3.65678 23.1091 3.53998 23.8046 3.89039 24.502Z" fill="#BE4242"/>
</svg>
