<svg width="663" height="128" viewBox="0 0 663 128" fill="none" xmlns="http://www.w3.org/2000/svg">
<path fill-rule="evenodd" clip-rule="evenodd" d="M2.33569 21.114H0.50238V0H662.502V14.076V21.114V96.7726H661.502C643.002 112.168 582.498 147.3 514.002 114.368C503.126 109.138 494.424 103.627 486.571 98.6534C463.378 83.9643 447.584 73.9613 405.002 89.7346C348.002 110.849 270.502 114.807 221.502 99.4118C173.508 84.332 148.523 93.7501 134.377 99.0825C134.081 99.1941 133.789 99.304 133.502 99.4118C78.5024 120.086 -0.49762 112.608 0.00238037 79.1776C0.402405 52.4331 0.169067 29.6183 0.00238037 21.5539L2.33569 21.114Z" fill="url(#paint0_linear_12_4)"/>
<defs>
<linearGradient id="paint0_linear_12_4" x1="662.502" y1="64" x2="0" y2="64" gradientUnits="userSpaceOnUse">
<stop stop-color="#EE88FF"/>
<stop offset="1" stop-color="#982DAA"/>
</linearGradient>
</defs>
</svg>
